HIERARCHY
ROOT Hips
{
    OFFSET   0.000000   0.000000   0.000000
    CHANNELS 6 Xposition Yposition Zposition Zrotation Xrotation Yrotation
    JOINT Chest
    {
        OFFSET   0.000000   8.007230   0.000000
        CHANNELS 3 Zrotation Xrotation Yrotation
        JOINT Chest2
        {
            OFFSET   0.000000  22.077100   0.000000
            CHANNELS 3 Zrotation Xrotation Yrotation
            JOINT Neck
            {
                OFFSET   0.000000  23.254800   0.000000
                CHANNELS 3 Zrotation Xrotation Yrotation
                JOINT Head
                {
                    OFFSET   0.000010  14.370000   1.956600
                    CHANNELS 3 Zrotation Xrotation Yrotation
                    End Site
                    {
                        OFFSET   0.000000  19.566000   0.000000
                    }
                }
            }
            JOINT LeftCollar
            {
                OFFSET   3.911900  19.017000  -0.467062
                CHANNELS 3 Zrotation Xrotation Yrotation
                JOINT LeftShoulder
                {
                    OFFSET  10.383700   0.000000   0.000000
                    CHANNELS 3 Zrotation Xrotation Yrotation
                    JOINT LeftElbow
                    {
                        OFFSET  26.662100   0.001193   0.000835
                        CHANNELS 3 Zrotation Xrotation Yrotation
                        JOINT LeftWrist
                        {
                            OFFSET  28.869000  -0.000058  -0.000075
                            CHANNELS 3 Zrotation Xrotation Yrotation
                            JOINT LeftFinger0
                            {
                                OFFSET   2.044660  -2.323460   3.252850
                                CHANNELS 3 Zrotation Xrotation Yrotation
                                JOINT LeftFinger01
                                {
                                    OFFSET   3.088130   0.000000   0.000000
                                    CHANNELS 3 Zrotation Xrotation Yrotation
                                    JOINT LeftFinger02
                                    {
                                        OFFSET   2.639450   0.000000   0.000000
                                        CHANNELS 3 Zrotation Xrotation Yrotation
                                        End Site
                                        {
                                            OFFSET   2.582190   0.000000   0.000000
                                        }
                                    }
                                }
                            }
                            JOINT LeftFinger1
                            {
                                OFFSET   8.364480   0.000000   3.252850
                                CHANNELS 3 Zrotation Xrotation Yrotation
                                JOINT LeftFinger11
                                {
                                    OFFSET   4.646920   0.000000   0.000000
                                    CHANNELS 3 Zrotation Xrotation Yrotation
                                    JOINT LeftFinger12
                                    {
                                        OFFSET   2.323460   0.000000   0.000000
                                        CHANNELS 3 Zrotation Xrotation Yrotation
                                        End Site
                                        {
                                            OFFSET   2.273050   0.000000   0.000000
                                        }
                                    }
                                }
                            }
                            JOINT LeftFinger2
                            {
                                OFFSET   8.364490   0.000016   1.078090
                                CHANNELS 3 Zrotation Xrotation Yrotation
                                JOINT LeftFinger21
                                {
                                    OFFSET   5.111620   0.000000   0.000000
                                    CHANNELS 3 Zrotation Xrotation Yrotation
                                    JOINT LeftFinger22
                                    {
                                        OFFSET   2.788150   0.000012   0.000000
                                        CHANNELS 3 Zrotation Xrotation Yrotation
                                        End Site
                                        {
                                            OFFSET   2.727660   0.000000   0.000000
                                        }
                                    }
                                }
                            }
                            JOINT LeftFinger3
                            {
                                OFFSET   7.899780   0.000014  -1.078090
                                CHANNELS 3 Zrotation Xrotation Yrotation
                                JOINT LeftFinger31
                                {
                                    OFFSET   4.646930   0.000000   0.000000
                                    CHANNELS 3 Zrotation Xrotation Yrotation
                                    JOINT LeftFinger32
                                    {
                                        OFFSET   2.323470   0.000000   0.000000
                                        CHANNELS 3 Zrotation Xrotation Yrotation
                                        End Site
                                        {
                                            OFFSET   2.273050   0.000000   0.000000
                                        }
                                    }
                                }
                            }
                            JOINT LeftFinger4
                            {
                                OFFSET   7.435090   0.000000  -3.252850
                                CHANNELS 3 Zrotation Xrotation Yrotation
                                JOINT LeftFinger41
                                {
                                    OFFSET   3.717550   0.000000   0.000000
                                    CHANNELS 3 Zrotation Xrotation Yrotation
                                    JOINT LeftFinger42
                                    {
                                        OFFSET   1.858770   0.000000   0.000000
                                        CHANNELS 3 Zrotation Xrotation Yrotation
                                        End Site
                                        {
                                            OFFSET   1.818440   0.000000   0.000000
                                        }
                                    }
                                }
                            }
                        }
                    }
                }
            }
            JOINT RightCollar
            {
                OFFSET  -3.911900  19.017000  -0.467063
                CHANNELS 3 Zrotation Xrotation Yrotation
                JOINT RightShoulder
                {
                    OFFSET -10.383700   0.000023   0.000000
                    CHANNELS 3 Zrotation Xrotation Yrotation
                    JOINT RightElbow
                    {
                        OFFSET -26.662100   0.001246   0.001011
                        CHANNELS 3 Zrotation Xrotation Yrotation
                        JOINT RightWrist
                        {
                            OFFSET -28.869000  -0.000026  -0.000078
                            CHANNELS 3 Zrotation Xrotation Yrotation
                            JOINT RightFinger0
                            {
                                OFFSET  -2.044660  -2.323490   3.252850
                                CHANNELS 3 Zrotation Xrotation Yrotation
                                JOINT RightFinger01
                                {
                                    OFFSET  -3.088130   0.000000   0.000000
                                    CHANNELS 3 Zrotation Xrotation Yrotation
                                    JOINT RightFinger02
                                    {
                                        OFFSET  -2.639460   0.000000   0.000000
                                        CHANNELS 3 Zrotation Xrotation Yrotation
                                        End Site
                                        {
                                            OFFSET  -2.582190   0.000000   0.000000
                                        }
                                    }
                                }
                            }
                            JOINT RightFinger1
                            {
                                OFFSET  -8.364480   0.000000   3.252850
                                CHANNELS 3 Zrotation Xrotation Yrotation
                                JOINT RightFinger11
                                {
                                    OFFSET  -4.646920   0.000000   0.000000
                                    CHANNELS 3 Zrotation Xrotation Yrotation
                                    JOINT RightFinger12
                                    {
                                        OFFSET  -2.323470   0.000000   0.000000
                                        CHANNELS 3 Zrotation Xrotation Yrotation
                                        End Site
                                        {
                                            OFFSET  -2.273050   0.000000   0.000000
                                        }
                                    }
                                }
                            }
                            JOINT RightFinger2
                            {
                                OFFSET  -8.364480   0.000000   1.078090
                                CHANNELS 3 Zrotation Xrotation Yrotation
                                JOINT RightFinger21
                                {
                                    OFFSET  -5.111620   0.000000   0.000000
                                    CHANNELS 3 Zrotation Xrotation Yrotation
                                    JOINT RightFinger22
                                    {
                                        OFFSET  -2.788160   0.000000   0.000000
                                        CHANNELS 3 Zrotation Xrotation Yrotation
                                        End Site
                                        {
                                            OFFSET  -2.727660   0.000000   0.000000
                                        }
                                    }
                                }
                            }
                            JOINT RightFinger3
                            {
                                OFFSET  -7.899780   0.000000  -1.078090
                                CHANNELS 3 Zrotation Xrotation Yrotation
                                JOINT RightFinger31
                                {
                                    OFFSET  -4.646930   0.000000   0.000000
                                    CHANNELS 3 Zrotation Xrotation Yrotation
                                    JOINT RightFinger32
                                    {
                                        OFFSET  -2.323470   0.000000   0.000000
                                        CHANNELS 3 Zrotation Xrotation Yrotation
                                        End Site
                                        {
                                            OFFSET  -2.273050   0.000000   0.000000
                                        }
                                    }
                                }
                            }
                            JOINT RightFinger4
                            {
                                OFFSET  -7.435090   0.000000  -3.252850
                                CHANNELS 3 Zrotation Xrotation Yrotation
                                JOINT RightFinger41
                                {
                                    OFFSET  -3.717550   0.000000   0.000000
                                    CHANNELS 3 Zrotation Xrotation Yrotation
                                    JOINT RightFinger42
                                    {
                                        OFFSET  -1.858760   0.000000   0.000000
                                        CHANNELS 3 Zrotation Xrotation Yrotation
                                        End Site
                                        {
                                            OFFSET  -1.818440   0.000000   0.000000
                                        }
                                    }
                                }
                            }
                        }
                    }
                }
            }
        }
    }
    JOINT LeftHip
    {
        OFFSET   9.783010   0.000000   0.000000
        CHANNELS 3 Zrotation Xrotation Yrotation
        JOINT LeftKnee
        {
            OFFSET   0.000073 -41.789100   0.001749
            CHANNELS 3 Zrotation Xrotation Yrotation
            JOINT LeftAnkle
            {
                OFFSET   0.000111 -41.133200  -0.000179
                CHANNELS 3 Zrotation Xrotation Yrotation
                JOINT LeftToe
                {
                    OFFSET   0.000000  -6.358960  14.674500
                    CHANNELS 3 Zrotation Xrotation Yrotation
                    End Site
                    {
                        OFFSET   0.000000   0.000000   3.913200
                    }
                }
            }
        }
    }
    JOINT RightHip
    {
        OFFSET  -9.783010   0.000000   0.000000
        CHANNELS 3 Zrotation Xrotation Yrotation
        JOINT RightKnee
        {
            OFFSET   0.000424 -41.789200   0.005205
            CHANNELS 3 Zrotation Xrotation Yrotation
            JOINT RightAnkle
            {
                OFFSET   0.000000 -41.133200  -0.000155
                CHANNELS 3 Zrotation Xrotation Yrotation
                JOINT RightToe
                {
                    OFFSET   0.000000  -6.358960  14.674500
                    CHANNELS 3 Zrotation Xrotation Yrotation
                    End Site
                    {
                        OFFSET   0.000000   0.000000   3.913200
                    }
                }
            }
        }
    }
}
MOTION
Frames: 4
Frame Time:   0.016667
 -1.048780  89.415100   1.363770  -3.645370  -9.737810  -5.340850   1.197710   5.357220  -0.218990   2.432160  10.708700  -0.554644   1.585820  -0.466339   0.005765   2.605990  -0.943838   1.809410  -5.615890  -0.530588   2.309960 -74.168100  19.626400  -3.659970  -1.846690  -1.712550 -15.962800  16.993000 -13.860400   5.140770  48.516500  39.123000 -78.316200 -21.660600   0.002464   0.001036  -5.833590   0.000831   0.006177 -29.773100   4.246110  -7.378810 -24.584000  -0.003029   0.012430 -17.217100  -0.004171   0.003760 -28.322100  -0.938702   1.729950 -34.481500   0.003440   0.011534 -22.964600  -0.011477  -0.002331 -28.121800  -0.932488   1.733260 -32.880400   0.003731  -0.004586 -21.898300   0.003605   0.003107 -30.256500  -0.991603   1.697490 -45.403400   0.004889   0.004935 -30.240900   0.003947   0.000714   8.349730  -0.368412   6.791190  68.647700  15.792400   0.754339  -2.693630  -5.032950  17.463500 -17.955300   4.806030  -1.930460 -47.152800  36.314500  75.690100  19.093500   0.010631  -0.079955   4.546710   0.000409  -0.040276  28.111900   6.955050  12.737800  23.643100   0.001901  -0.022397  16.550200  -0.010784  -0.025057  27.447600   3.854040   7.344540  28.636400   0.002897  -0.032147  19.071800  -0.008556  -0.018706  25.303300   3.574300   7.481340  25.550500  -0.002064  -0.027293  17.016600  -0.004904  -0.016735  30.993900   1.071780   1.750630  46.529700  -0.025053  -0.040035  30.988800  -0.027783  -0.014732   1.611320  14.236200   3.627660   1.625240   0.004943   8.323060  -1.273480  -5.003190   3.030640   0.000000   0.000000   0.000000   4.422190  12.925400  -7.095500   0.100714   1.049300  -7.391330  -1.274370  -4.614380   4.280180   0.000000   0.000000   0.000000
 -1.048410  89.415300   1.373360  -3.683200  -9.802050  -5.404850   1.205100   5.403540  -0.219453   2.447380  10.801200  -0.556276   1.619070  -0.434678   0.006042   2.661020  -0.879736   1.754150  -5.595360  -0.490735   2.268850 -74.143000  19.682500  -3.703790  -1.879780  -1.752650 -15.974200  16.963500 -13.838500   5.119940  48.557100  39.164200 -78.369900 -21.661600   0.002463   0.001029  -5.833590   0.000832   0.006171 -29.777600   4.245880  -7.377160 -24.587500  -0.003036   0.012432 -17.217100  -0.004168   0.003762 -28.322100  -0.938949   1.730530 -34.499400   0.003440   0.011536 -22.976500  -0.011478  -0.002331 -28.121800  -0.932734   1.733850 -32.885400   0.003732  -0.004588 -21.901700   0.003606   0.003107 -30.251400  -0.991602   1.698140 -45.397500   0.004893   0.004936 -30.235800   0.003947   0.000714   8.350240  -0.386972   6.753440  68.636400  15.898200   0.736690  -3.342020  -4.166670  18.769100 -18.462700   6.484630  -1.697980 -47.273300  36.416000  75.688200  17.874200   0.010614  -0.100685   3.937070   0.000416  -0.050605  27.721600   6.922970  12.874900  23.327900   0.001878  -0.030550  16.329600  -0.010827  -0.025055  27.297000   3.964860   7.571270  28.034200   0.002900  -0.042669  18.670700  -0.008581  -0.025471  24.924300   3.635650   7.730550  25.184300  -0.002137  -0.035933  16.772800  -0.004978  -0.022932  30.553600   1.151730   1.901590  45.878100  -0.031980  -0.057645  30.554800  -0.038360  -0.023158   1.642140  14.279900   3.669780   1.602710   0.092487   8.294130  -1.278430  -5.060530   3.069240  -0.000000   0.000000  -0.000000   4.438540  12.988000  -7.087280   0.099651   1.056710  -7.355140  -1.279610  -4.615300   4.286730  -0.000000   0.000000  -0.000000
 -1.048040  89.415500   1.386960  -3.755320  -9.915150  -5.529410   1.218150   5.481870  -0.222607   2.474910  10.957700  -0.566803   1.695860  -0.365010   0.006320   2.787380  -0.738807   1.621810  -5.552610  -0.421435   2.200490 -74.106500  19.792200  -3.771300  -1.939440  -1.821260 -15.985900  16.911800 -13.800800   5.086060  48.624500  39.234400 -78.457700 -21.667200   0.002461   0.001022  -5.833590   0.000837   0.006165 -29.788000   4.245680  -7.373230 -24.595800  -0.003042   0.012438 -17.217100  -0.004165   0.003764 -28.322000  -0.939295   1.732330 -34.528100   0.003441   0.011544 -22.995700  -0.011484  -0.002331 -28.121900  -0.933077   1.735670 -32.896800   0.003733  -0.004591 -21.909300   0.003608   0.003104 -30.246400  -0.991601   1.699990 -45.391700   0.004898   0.004939 -30.230800   0.003946   0.000714   8.344160  -0.425122   6.681200  68.588400  16.057800   0.719219  -4.619800  -2.687380  21.196600 -19.420500   9.309060  -1.176480 -47.650200  36.646600  75.814600  15.775600   0.010586  -0.121416   2.887790   0.000428  -0.060934  26.996200   6.842750  13.101900  22.737900   0.001836  -0.038703  15.916500  -0.010870  -0.025044  26.836600   4.089350   7.962310  27.011600   0.002904  -0.053192  17.989700  -0.008630  -0.032235  24.211000   3.718400   8.146750  24.490200  -0.002259  -0.048105  16.310500  -0.005115  -0.030289  29.691800   1.302360   2.216170  44.601200  -0.038907  -0.081985  29.704400  -0.048938  -0.035479   1.697280  14.378400   3.753870   1.569350   0.180051   8.249650  -1.283920  -5.139670   3.133360  -0.000000   0.000000   0.000000   4.476140  13.089500  -7.070860   0.092144   1.081830  -7.286270  -1.288460  -4.617070   4.302190  -0.000000   0.000000   0.000000
 -1.049740  89.415600   1.393430  -3.830500 -10.018100  -5.661790   1.230960   5.547000  -0.234267   2.502690  11.087600  -0.594170   1.796100  -0.279866   0.006250   2.952840  -0.566816   1.455390  -5.501330  -0.360879   2.148870 -74.092400  19.915000  -3.810550  -1.995930  -1.877510 -15.981600  16.867400 -13.772100   5.061920  48.675800  39.294800 -78.523900 -21.684500   0.002468   0.001040  -5.841110   0.000850   0.006180 -29.804100   4.245810  -7.365790 -24.608800  -0.003036   0.012449 -17.224500  -0.004172   0.003762 -28.322700  -0.939440   1.736640 -34.553100   0.003443   0.011556 -23.012300  -0.011496  -0.002333 -28.122100  -0.933224   1.739990 -32.917100   0.003735  -0.004593 -21.922800   0.003610   0.003100 -30.252300  -0.993968   1.704160 -45.400700   0.004897   0.004945 -30.236900   0.003948   0.000715   8.307720  -0.472018   6.604250  68.499200  16.130500   0.719627  -5.965100  -1.400350  23.650300 -20.485500  11.562900  -0.433632 -48.062500  36.985600  76.229500  13.968900   0.010562  -0.112773   1.984440   0.000432  -0.056520  26.279400   6.737620  13.298700  22.148600   0.001790  -0.037856  15.504000  -0.010861  -0.024460  26.016000   4.103560   8.335280  26.194700   0.002906  -0.051323  17.445600  -0.008692  -0.031224  23.522500   3.743860   8.509510  23.808800  -0.002383  -0.053594  15.856700  -0.005297  -0.031642  28.769900   1.467040   2.598060  43.235000  -0.037344  -0.091292  28.794600  -0.048822  -0.042635   1.748940  14.516400   3.850040   1.542960   0.164111   8.216300  -1.281640  -5.161920   3.183660  -0.000000   0.000000   0.000000   4.527000  13.164900  -7.051440   0.073218   1.128140  -7.214380  -1.296080  -4.619110   4.320180  -0.000000   0.000000   0.000000
